/* XPM */
static char *cursor_xpm[] = {
/* columns rows colors chars-per-pixel */
"32 32 3 1 ",
"  c #000000",
". c #FFFFFF",
"X c #FEFFFF",
/* pixels */
"XXXXXXXXXXXXXXXXXXXXXXXXXXXXXXXX",
"XXXXXXXXXXXXXXXXXXXXXXXXXXXXXXXX",
"XXXXXXXXXXXXXXXXXXXXXXXXXXXXXXXX",
"XXX   XXXXXXXXXXXXXXXXXXXX   XXX",
"XXX .. XXXXXXXXXXXXXXXXXX .. XXX",
"XXX ... XXXXXXXXXXXXXXXX ... XXX",
"XXXX ... XXXXXXXXXXXXXX ... XXXX",
"XXXXX ... XXXXXXXXXXXX ... XXXXX",
"XXXXXX ... XXXXXXXXXX ... XXXXXX",
"XXXXXXX ... XXXXXXXX ... XXXXXXX",
"XXXXXXXX ... XXXXXX ... XXXXXXXX",
"XXXXXXXXX ... XXXX ... XXXXXXXXX",
"XXXXXXXXXX . XXXXXX . XXXXXXXXXX",
"XXXXXXXXXXX XXXXXXXX XXXXXXXXXXX",
"XXXXXXXXXXXXXXXXXXXXXXXXXXXXXXXX",
"XXXXXXXXXXXXXXXXXXXXXXXXXXXXXXXX",
"XXXXXXXXXXXXXXXXXXXXXXXXXXXXXXXX",
"XXXXXXXXXXXXXXXXXXXXXXXXXXXXXXXX",
"XXXXXXXXXXX XXXXXXXX XXXXXXXXXXX",
"XXXXXXXXXX . XXXXXX . XXXXXXXXXX",
"XXXXXXXXX ... XXXX ... XXXXXXXXX",
"XXXXXXXX ... XXXXXX ... XXXXXXXX",
"XXXXXXX ... XXXXXXXX ... XXXXXXX",
"XXXXXX ... XXXXXXXXXX ... XXXXXX",
"XXXXX ... XXXXXXXXXXXX ... XXXXX",
"XXXX ... XXXXXXXXXXXXXX ... XXXX",
"XXX ... XXXXXXXXXXXXXXXX ... XXX",
"XXX .. XXXXXXXXXXXXXXXXXX .. XXX",
"XXX   XXXXXXXXXXXXXXXXXXXX   XXX",
"XXXXXXXXXXXXXXXXXXXXXXXXXXXXXXXX",
"XXXXXXXXXXXXXXXXXXXXXXXXXXXXXXXX",
"XXXXXXXXXXXXXXXXXXXXXXXXXXXXXXXX"
};
