/* XPM */
static char *xpm_5[] = {
/* columns rows colors chars-per-pixel */
"16 32 2 1 ",
"  c #FFFFFF",
". c #FEFFFF",
/* pixels */
"                ",
"                ",
"                ",
"                ",
"    ............",
"    ............",
"    ............",
"    ............",
"    ............",
"    ............",
"    ............",
"    ............",
"    ............",
"    ............",
"                ",
"                ",
"                ",
"                ",
"............    ",
"............    ",
"............    ",
"............    ",
"............    ",
"............    ",
"............    ",
"............    ",
"............    ",
"............    ",
"                ",
"                ",
"                ",
"                "
};
