/* XPM */
static char *xpm_2_pontos[] = {
/* columns rows colors chars-per-pixel */
"4 12 2 1 ",
"  c #FFFFFF",
". c #FEFFFF",
/* pixels */
"    ",
"    ",
"    ",
"    ",
"....",
"....",
"....",
"....",
"    ",
"    ",
"    ",
"    "
};
