/* XPM */
static char *xpm_1[] = {
/* columns rows colors chars-per-pixel */
"16 32 3 1 ",
"  c #181425",
". c #FFFFFF",
"X c #FEFFFF",
/* pixels */
"  XXXXXXXXXX....",
"  XXXXXXXXXX....",
"XXXXXXXXXXXX....",
"XXXXXXXXXXXX....",
"XXXXXXXXXXXX....",
"XXXXXXXXXXXX....",
"XXXXXXXXXXXX....",
"XXXXXXXXXXXX....",
"XXXXXXXXXXXX....",
"XXXXXXXXXXXX....",
"XXXXXXXXXXXX....",
"XXXXXXXXXXXX....",
"XXXXXXXXXXXX....",
"XXXXXXXXXXXX....",
"XXXXXXXXXXXX....",
"XXXXXXXXXXXX....",
"XXXXXXXXXXXX....",
"XXXXXXXXXXXX....",
"XXXXXXXXXXXX....",
"XXXXXXXXXXXX....",
"XXXXXXXXXXXX....",
"XXXXXXXXXXXX....",
"XXXXXXXXXXXX....",
"XXXXXXXXXXXX....",
"XXXXXXXXXXXX....",
"XXXXXXXXXXXX....",
"XXXXXXXXXXXX....",
"XXXXXXXXXXXX....",
"XXXXXXXXXXXX....",
"XXXXXXXXXXXX....",
"XXXXXXXXXXXX....",
"XXXXXXXXXXXX...."
};
