/* XPM */
static char *xpm_2_pontos[] = {
/* columns rows colors chars-per-pixel */
"16 32 3 1 ",
"  c #181425",
". c #FFFFFF",
"X c #FEFFFF",
/* pixels */
"  XXXXXXXXXXXXXX",
"  XXXXXXXXXXXXXX",
"XXXXXXXXXXXXXXXX",
"XXXXXXXXXXXXXXXX",
"XXXXXXXXXXXXXXXX",
"XXXXXXXXXXXXXXXX",
"XXXXXXXXXXXXXXXX",
"XXXXXXXXXXXXXXXX",
"XXXXXXXXXXXXXXXX",
"XXXXXXXXXXXXXXXX",
"XXXXXX....XXXXXX",
"XXXXXX....XXXXXX",
"XXXXXX....XXXXXX",
"XXXXXX....XXXXXX",
"XXXXXXXXXXXXXXXX",
"XXXXXXXXXXXXXXXX",
"XXXXXXXXXXXXXXXX",
"XXXXXXXXXXXXXXXX",
"XXXXXX....XXXXXX",
"XXXXXX....XXXXXX",
"XXXXXX....XXXXXX",
"XXXXXX....XXXXXX",
"XXXXXXXXXXXXXXXX",
"XXXXXXXXXXXXXXXX",
"XXXXXXXXXXXXXXXX",
"XXXXXXXXXXXXXXXX",
"XXXXXXXXXXXXXXXX",
"XXXXXXXXXXXXXXXX",
"XXXXXXXXXXXXXXXX",
"XXXXXXXXXXXXXXXX",
"XXXXXXXXXXXXXX  ",
"XXXXXXXXXXXXXX  "
};
