/* XPM */
static char *monster_xpm[] = {
/* columns rows colors chars-per-pixel */
"32 32 66 1 ",
"  c #090200",
". c #0B0200",
"X c #0C0200",
"o c #0E0300",
"O c #0E0401",
"+ c #130600",
"@ c #160701",
"# c #110405",
"$ c #170707",
"% c #170800",
"& c #180800",
"* c #1D0A00",
"= c #1D0B00",
"- c #1B0807",
"; c #1C0809",
": c #1D1002",
"> c #12141C",
", c #2A0C01",
"< c #250C0D",
"1 c #330F03",
"2 c #201108",
"3 c #2A100E",
"4 c #3A1203",
"5 c #331A05",
"6 c #371612",
"7 c #3C2703",
"8 c #421605",
"9 c #401506",
"0 c #4C1B05",
"q c #491A08",
"w c #551F0B",
"e c #4B2F03",
"r c #4C2E03",
"t c #5E2107",
"y c #4C3003",
"u c #4A3005",
"i c #5A3B05",
"p c #5D3C05",
"a c #5E3E07",
"s c #5E3F07",
"d c #5D3F08",
"f c #4A201A",
"g c #69260C",
"h c #7F410F",
"j c #704D09",
"k c #6F510E",
"l c #755108",
"z c #75510C",
"x c #7F5F13",
"c c #805C0D",
"v c #8C6915",
"b c #8D6915",
"n c #916B11",
"m c #A07D1D",
"M c #A88114",
"N c #B59326",
"B c #D2AB2E",
"V c #F3C637",
"C c #ABA058",
"Z c #9D917F",
"A c #222E98",
"S c #608EFF",
"D c #DBD5BE",
"F c #FCF6D5",
"G c #FFFFFF",
"H c #FEFFFF",
/* pixels */
"HHHHHHHHHHHHHHHHHHHHHHHHHHHHHHHH",
"HHHHHHHHH22H=====H22HHHHHHHHHHHH",
"HHHHHHHH2DF2bNNNb2FD2HHHHHHHHHHH",
"HHHHHHH2ZF2bNNBNNb2FZ2HHHHHHHHHH",
"HHHH**2ZF27NABVBAN72FZ2=HHHHHHHH",
"HHHH*d2D2z7NSABASN7H2D2d==HHHHHH",
"HHH*dk2ZD27vNNBNNv72DZ2kd=HHHHHH",
"HH*uzvk2ZF2svNsNvs2FZ2xvd=HHHHHH",
"HHH*vvmk22-:vsssv:-22xNvvs=HHHHH",
"HHH*vNmv#-33:GCG:33-#mNNv=HHHHHH",
"HH*vvNNm##;36:::63;##NBNvv=HHHHH",
"HH*vNBNszp#666f666#pzsBNvvs=HHHH",
"H*avNVB==p#6<fff;6#p==VBNv=HHHHH",
"HH*vNV*HH=p$,<f<,#p=HH=VNv=HHHHH",
"HH*vNB*H==zz91<19pz=HH=BNvs=HHHH",
"H*avNN*HHH=v9w1w9v=HHH=BNv=HHHHH",
"HH*vvN*HHH%vwgwgwv=HHH=Nvzs=HHHH",
"HH*zvm*H=+pjNghgNvr+&H=mvz=HHHHH",
"HHH*vv*HH+jpjwgwvpi+HH=vv=HH=HHH",
"HHH*za=H+inn11w91nli&H=sz=HH=HHH",
"HHH*awqo@inM81.18Mniyoqws=H=s=HH",
"HHHowhw5@jn0t.H.t0njyOwh9oH=s=HH",
"HHHo9wgwOjc80.H.08cjOwgw9oHH=HHH",
"HHHHo95w jj8.HHH.8jvo959oHHHH>HH",
"HHHHHoooH%j4.HHH.qj=HoooHHHHH>HH",
"HHHHHHHHH%jj.HHH.vj=HHH>HHHH>HHH",
"HHHHHHHH=epj%HHH%jpe=HHH>HH>HHHH",
"HHHHHHHHH=pe.HHH.ep%HHHHH>>HHHHH",
"HHHHHHHoows1.HHH 1ewooHHHHHHHHHH",
"HHHHHoohgww.1oHo,.8wghooHHHHHHHH",
"HHHHoooooooH.oHoXHoooooooHHHHHHH",
"HHHHHHHHHHHHHHHHHHHHHHHHHHHHHHHH"
};
